<svg width="32" height="32" viewBox="0 0 32 32" fill="none" xmlns="http://www.w3.org/2000/svg">
<path d="M19.6667 4.35863C19.6667 3.42396 18.9094 2.66663 17.9747 2.66663H16.0267C15.0907 2.66663 14.3334 3.42396 14.3334 4.35863C14.3334 5.12929 13.8054 5.79063 13.0867 6.07329C12.9729 6.11951 12.8605 6.16663 12.7494 6.21463C12.0414 6.52129 11.2 6.42796 10.6534 5.88263C10.3359 5.5659 9.90578 5.38803 9.45735 5.38803C9.00892 5.38803 8.5788 5.5659 8.26135 5.88263L6.88269 7.26129C6.56596 7.57874 6.38809 8.00886 6.38809 8.45729C6.38809 8.90572 6.56596 9.33584 6.88269 9.65329C7.42935 10.2 7.52269 11.04 7.21335 11.7493C7.16476 11.8609 7.11809 11.9734 7.07335 12.0866C6.79069 12.8053 6.12935 13.3333 5.35869 13.3333C4.42402 13.3333 3.66669 14.0906 3.66669 15.0253V16.9746C3.66669 17.9093 4.42402 18.6666 5.35869 18.6666C6.12935 18.6666 6.79069 19.1946 7.07335 19.9133C7.11958 20.0271 7.16624 20.1395 7.21335 20.2506C7.52135 20.9586 7.42802 21.8 6.88269 22.3466C6.56596 22.6641 6.38809 23.0942 6.38809 23.5426C6.38809 23.9911 6.56596 24.4212 6.88269 24.7386L8.26135 26.1173C8.5788 26.434 9.00892 26.6119 9.45735 26.6119C9.90578 26.6119 10.3359 26.434 10.6534 26.1173C11.2 25.5706 12.04 25.4773 12.7494 25.7853C12.8605 25.8342 12.9729 25.8813 13.0867 25.9266C13.8054 26.2093 14.3334 26.8706 14.3334 27.6413C14.3334 28.576 15.0907 29.3333 16.0254 29.3333H17.9747C18.9094 29.3333 19.6667 28.576 19.6667 27.6413C19.6667 26.8706 20.1947 26.2093 20.9134 25.9253C21.0271 25.8808 21.1396 25.8346 21.2507 25.7866C21.9587 25.4773 22.8 25.572 23.3454 26.1173C23.6629 26.4344 24.0933 26.6126 24.542 26.6126C24.9908 26.6126 25.4212 26.4344 25.7387 26.1173L27.1174 24.7386C27.4341 24.4212 27.612 23.9911 27.612 23.5426C27.612 23.0942 27.4341 22.6641 27.1174 22.3466C26.5707 21.8 26.4774 20.96 26.7854 20.2506C26.8342 20.1395 26.8814 20.0271 26.9267 19.9133C27.2094 19.1946 27.8707 18.6666 28.6414 18.6666C29.576 18.6666 30.3334 17.9093 30.3334 16.9746V15.0266C30.3334 14.092 29.576 13.3346 28.6414 13.3346C27.8707 13.3346 27.2094 12.8066 26.9254 12.088C26.8806 11.9747 26.8339 11.8623 26.7854 11.7506C26.4787 11.0426 26.572 10.2013 27.1174 9.65463C27.4341 9.33718 27.612 8.90706 27.612 8.45863C27.612 8.0102 27.4341 7.58008 27.1174 7.26263L25.7387 5.88396C25.4212 5.56723 24.9911 5.38936 24.5427 5.38936C24.0943 5.38936 23.6641 5.56723 23.3467 5.88396C22.8 6.43063 21.96 6.52396 21.2507 6.21596C21.1391 6.16692 21.0266 6.11981 20.9134 6.07463C20.1947 5.79063 19.6667 5.12796 19.6667 4.35863Z" stroke="#FFA4A4" stroke-width="2"/>
<path d="M19.6667 4.35863C19.6667 3.42396 18.9094 2.66663 17.9747 2.66663H16.0267C15.0907 2.66663 14.3334 3.42396 14.3334 4.35863C14.3334 5.12929 13.8054 5.79063 13.0867 6.07329C12.9729 6.11951 12.8605 6.16663 12.7494 6.21463C12.0414 6.52129 11.2 6.42796 10.6534 5.88263C10.3359 5.5659 9.90578 5.38803 9.45735 5.38803C9.00892 5.38803 8.5788 5.5659 8.26135 5.88263L6.88269 7.26129C6.56596 7.57874 6.38809 8.00886 6.38809 8.45729C6.38809 8.90572 6.56596 9.33584 6.88269 9.65329C7.42935 10.2 7.52269 11.04 7.21335 11.7493C7.16476 11.8609 7.11809 11.9734 7.07335 12.0866C6.79069 12.8053 6.12935 13.3333 5.35869 13.3333C4.42402 13.3333 3.66669 14.0906 3.66669 15.0253V16.9746C3.66669 17.9093 4.42402 18.6666 5.35869 18.6666C6.12935 18.6666 6.79069 19.1946 7.07335 19.9133C7.11958 20.0271 7.16624 20.1395 7.21335 20.2506C7.52135 20.9586 7.42802 21.8 6.88269 22.3466C6.56596 22.6641 6.38809 23.0942 6.38809 23.5426C6.38809 23.9911 6.56596 24.4212 6.88269 24.7386L8.26135 26.1173C8.5788 26.434 9.00892 26.6119 9.45735 26.6119C9.90578 26.6119 10.3359 26.434 10.6534 26.1173C11.2 25.5706 12.04 25.4773 12.7494 25.7853C12.8605 25.8342 12.9729 25.8813 13.0867 25.9266C13.8054 26.2093 14.3334 26.8706 14.3334 27.6413C14.3334 28.576 15.0907 29.3333 16.0254 29.3333H17.9747C18.9094 29.3333 19.6667 28.576 19.6667 27.6413C19.6667 26.8706 20.1947 26.2093 20.9134 25.9253C21.0271 25.8808 21.1396 25.8346 21.2507 25.7866C21.9587 25.4773 22.8 25.572 23.3454 26.1173C23.6629 26.4344 24.0933 26.6126 24.542 26.6126C24.9908 26.6126 25.4212 26.4344 25.7387 26.1173L27.1174 24.7386C27.4341 24.4212 27.612 23.9911 27.612 23.5426C27.612 23.0942 27.4341 22.6641 27.1174 22.3466C26.5707 21.8 26.4774 20.96 26.7854 20.2506C26.8342 20.1395 26.8814 20.0271 26.9267 19.9133C27.2094 19.1946 27.8707 18.6666 28.6414 18.6666C29.576 18.6666 30.3334 17.9093 30.3334 16.9746V15.0266C30.3334 14.092 29.576 13.3346 28.6414 13.3346C27.8707 13.3346 27.2094 12.8066 26.9254 12.088C26.8806 11.9747 26.8339 11.8623 26.7854 11.7506C26.4787 11.0426 26.572 10.2013 27.1174 9.65463C27.4341 9.33718 27.612 8.90706 27.612 8.45863C27.612 8.0102 27.4341 7.58008 27.1174 7.26263L25.7387 5.88396C25.4212 5.56723 24.9911 5.38936 24.5427 5.38936C24.0943 5.38936 23.6641 5.56723 23.3467 5.88396C22.8 6.43063 21.96 6.52396 21.2507 6.21596C21.1391 6.16692 21.0266 6.11981 20.9134 6.07463C20.1947 5.79063 19.6667 5.12796 19.6667 4.35863Z" stroke="black" stroke-opacity="0.1" stroke-width="2"/>
<path d="M22.3334 16C22.3334 17.4144 21.7715 18.771 20.7713 19.7712C19.7711 20.7714 18.4145 21.3333 17 21.3333C15.5855 21.3333 14.229 20.7714 13.2288 19.7712C12.2286 18.771 11.6667 17.4144 11.6667 16C11.6667 14.5855 12.2286 13.2289 13.2288 12.2287C14.229 11.2285 15.5855 10.6666 17 10.6666C18.4145 10.6666 19.7711 11.2285 20.7713 12.2287C21.7715 13.2289 22.3334 14.5855 22.3334 16Z" stroke="#FFA4A4" stroke-width="2"/>
<path d="M22.3334 16C22.3334 17.4144 21.7715 18.771 20.7713 19.7712C19.7711 20.7714 18.4145 21.3333 17 21.3333C15.5855 21.3333 14.229 20.7714 13.2288 19.7712C12.2286 18.771 11.6667 17.4144 11.6667 16C11.6667 14.5855 12.2286 13.2289 13.2288 12.2287C14.229 11.2285 15.5855 10.6666 17 10.6666C18.4145 10.6666 19.7711 11.2285 20.7713 12.2287C21.7715 13.2289 22.3334 14.5855 22.3334 16Z" stroke="black" stroke-opacity="0.1" stroke-width="2"/>
</svg>
