<svg width="27" height="27" viewBox="0 0 27 27" fill="none" xmlns="http://www.w3.org/2000/svg">
<path d="M5.90625 10.125C5.68247 10.125 5.46786 10.2139 5.30963 10.3721C5.1514 10.5304 5.0625 10.745 5.0625 10.9688V16.0312C5.0625 16.255 5.1514 16.4696 5.30963 16.6279C5.46786 16.7861 5.68247 16.875 5.90625 16.875H15.1875C15.4113 16.875 15.6259 16.7861 15.7841 16.6279C15.9424 16.4696 16.0312 16.255 16.0312 16.0312V10.9688C16.0312 10.745 15.9424 10.5304 15.7841 10.3721C15.6259 10.2139 15.4113 10.125 15.1875 10.125H5.90625ZM1.6875 10.5469C1.6875 9.53988 2.08753 8.57413 2.79958 7.86208C3.51163 7.15003 4.47738 6.75 5.48438 6.75H19.8281C20.8351 6.75 21.8009 7.15003 22.5129 7.86208C23.225 8.57413 23.625 9.53988 23.625 10.5469V10.9688H24.0469C24.3825 10.9688 24.7045 11.1021 24.9418 11.3394C25.1792 11.5768 25.3125 11.8987 25.3125 12.2344V14.7656C25.3125 15.1013 25.1792 15.4232 24.9418 15.6606C24.7045 15.8979 24.3825 16.0312 24.0469 16.0312H23.625V16.4531C23.625 17.4601 23.225 18.4259 22.5129 19.1379C21.8009 19.85 20.8351 20.25 19.8281 20.25H5.48438C4.47738 20.25 3.51163 19.85 2.79958 19.1379C2.08753 18.4259 1.6875 17.4601 1.6875 16.4531V10.5469ZM5.48438 8.4375C4.92493 8.4375 4.38841 8.65974 3.99282 9.05532C3.59724 9.45091 3.375 9.98743 3.375 10.5469V16.4531C3.375 17.0126 3.59724 17.5491 3.99282 17.9447C4.38841 18.3403 4.92493 18.5625 5.48438 18.5625H19.8281C20.3876 18.5625 20.9241 18.3403 21.3197 17.9447C21.7153 17.5491 21.9375 17.0126 21.9375 16.4531V10.5469C21.9375 9.98743 21.7153 9.45091 21.3197 9.05532C20.9241 8.65974 20.3876 8.4375 19.8281 8.4375H5.48438Z" fill="#C7C7CC"/>
</svg>
