<svg width="41" height="40" viewBox="0 0 41 40" fill="none" xmlns="http://www.w3.org/2000/svg">
<g opacity="0.8" filter="url(#filter0_d_31_1422)">
<path d="M5.74967 21.0346C5.74967 21.0346 5.00009 11.3883 10.9967 6.19415C16.9934 1 34.9832 1 34.9832 1C34.9832 1 35.7328 18.8085 31.2353 24.7447C26.7379 30.6809 13.995 29.1968 13.995 29.1968" fill="#C1E4B9"/>
<path d="M5.74967 21.0346C5.74967 21.0346 5.00009 11.3883 10.9967 6.19415C16.9934 1 34.9832 1 34.9832 1C34.9832 1 35.7328 18.8085 31.2353 24.7447C26.7379 30.6809 13.995 29.1968 13.995 29.1968" stroke="#3D731D" stroke-width="2" stroke-linecap="round" stroke-linejoin="round"/>
<path d="M5.00006 30.6808C5.00006 30.6808 11.3332 22.385 16.9933 17.3244C22.6534 12.2638 28.237 9.90417 28.237 9.90417M16.9933 17.3244L26.7378 18.0664ZM16.9933 17.3244L17.7429 9.90417Z" fill="#C1E4B9"/>
<path d="M5.00006 30.6808C5.00006 30.6808 11.3332 22.385 16.9933 17.3244M16.9933 17.3244C22.6534 12.2638 28.237 9.90417 28.237 9.90417M16.9933 17.3244L26.7378 18.0664M16.9933 17.3244L17.7429 9.90417" stroke="#3D731D" stroke-width="2" stroke-linecap="round" stroke-linejoin="round"/>
</g>
<defs>
<filter id="filter0_d_31_1422" x="0" y="0" width="40.0301" height="39.6808" filterUnits="userSpaceOnUse" color-interpolation-filters="sRGB">
<feFlood flood-opacity="0" result="BackgroundImageFix"/>
<feColorMatrix in="SourceAlpha" type="matrix" values="0 0 0 0 0 0 0 0 0 0 0 0 0 0 0 0 0 0 127 0" result="hardAlpha"/>
<feOffset dy="4"/>
<feGaussianBlur stdDeviation="2"/>
<feComposite in2="hardAlpha" operator="out"/>
<feColorMatrix type="matrix" values="0 0 0 0 0 0 0 0 0 0 0 0 0 0 0 0 0 0 0.25 0"/>
<feBlend mode="normal" in2="BackgroundImageFix" result="effect1_dropShadow_31_1422"/>
<feBlend mode="normal" in="SourceGraphic" in2="effect1_dropShadow_31_1422" result="shape"/>
</filter>
</defs>
</svg>
