<svg width="18" height="18" viewBox="0 0 18 18" fill="none" xmlns="http://www.w3.org/2000/svg">
<path d="M4.7625 11.5125L3.1875 9.9C3.9625 9.125 4.85 8.53125 5.85 8.11875C6.85 7.70625 7.9 7.5 9 7.5C10.1 7.5 11.1532 7.7095 12.1597 8.1285C13.1662 8.5475 14.0505 9.1505 14.8125 9.9375L13.2375 11.5125C12.675 10.95 12.028 10.5158 11.2965 10.2098C10.565 9.90375 9.7995 9.7505 9 9.75C8.2005 9.7495 7.435 9.90275 6.7035 10.2098C5.972 10.5168 5.325 10.951 4.7625 11.5125ZM1.575 8.325L0 6.75C1.1875 5.5375 2.5595 4.60925 4.116 3.96525C5.6725 3.32125 7.3005 2.9995 9 3C10.6995 3.0005 12.3278 3.3225 13.8848 3.966C15.4418 4.6095 16.8135 5.5375 18 6.75L16.425 8.325C15.4375 7.3375 14.303 6.57825 13.0215 6.04725C11.74 5.51625 10.3995 5.2505 9 5.25C7.6005 5.2495 6.25975 5.51525 4.97775 6.04725C3.69575 6.57925 2.5615 7.3385 1.575 8.325ZM9 15.75L6.35625 13.0875C6.70625 12.7375 7.1095 12.4688 7.566 12.2813C8.0225 12.0938 8.5005 12 9 12C9.4995 12 9.97775 12.0938 10.4347 12.2813C10.8918 12.4688 11.2947 12.7375 11.6437 13.0875L9 15.75Z" fill="#C7C7CC"/>
</svg>
