<svg width="85" height="84" viewBox="0 0 85 84" fill="none" xmlns="http://www.w3.org/2000/svg">
<path d="M42.5 0.5C48.0163 0.499987 53.4782 1.57418 58.5742 3.66016C63.6703 5.74616 68.3004 8.80336 72.2002 12.6572C76.0999 16.511 79.1935 21.0856 81.3037 26.1201C83.4139 31.1547 84.5 36.551 84.5 42C84.4999 64.9142 65.7015 83.4999 42.5 83.5C19.2986 83.5 0.500054 64.9142 0.5 42C0.5 19.0859 19.2986 0.5 42.5 0.5ZM38.25 45.7002C27.5246 45.7002 18.3134 52.1198 14.3398 61.2881L14.2275 61.5488L14.3936 61.7793C20.649 70.4478 30.9077 76.0996 42.5 76.0996C54.0921 76.0996 64.3508 70.4482 70.6064 61.7793L70.7725 61.5488L70.6602 61.2871C66.6865 52.1196 57.4753 45.7002 46.75 45.7002H38.25ZM42.5 12.0996C35.1879 12.0996 29.25 17.9598 29.25 25.2002C29.2501 32.4405 35.1879 38.2998 42.5 38.2998C49.812 38.2998 55.7499 32.4405 55.75 25.2002C55.75 17.9598 49.8123 12.0997 42.5 12.0996Z" fill="#8F8080" stroke="#776A6A"/>
</svg>
