<svg width="33" height="33" viewBox="0 0 33 33" fill="none" xmlns="http://www.w3.org/2000/svg">
<g clip-path="url(#clip0_32_1430)">
<path d="M29.9076 6.01013C30.2943 5.62335 30.5115 5.09884 30.5115 4.55194C30.5115 4.00504 30.2943 3.48053 29.9076 3.09375L28.4487 1.63488C28.062 1.24822 27.5375 1.03101 26.9906 1.03101C26.4437 1.03101 25.9191 1.24822 25.5324 1.63488L20.427 6.7375L11.6765 15.4894L10.219 21.3235L16.0517 19.8646L24.8022 11.1141M24.8022 11.1141L20.427 6.7375M24.8022 11.1141L29.9076 6.01013M29.9076 6.01013L31.3651 7.46763C31.5568 7.65917 31.7088 7.88659 31.8126 8.13691C31.9163 8.38723 31.9697 8.65554 31.9697 8.9265C31.9697 9.19747 31.9163 9.46577 31.8126 9.71609C31.7088 9.96641 31.5568 10.1938 31.3651 10.3854L26.8125 14.9366" stroke="#757474" stroke-width="1.5" stroke-linecap="round" stroke-linejoin="round"/>
<path d="M25.7812 19.5938V29.9062C25.7812 30.4533 25.564 30.9779 25.1772 31.3647C24.7904 31.7515 24.2658 31.9688 23.7188 31.9688H3.09375C2.54674 31.9688 2.02214 31.7515 1.63534 31.3647C1.24855 30.9779 1.03125 30.4533 1.03125 29.9062V9.28125C1.03125 8.73424 1.24855 8.20964 1.63534 7.82284C2.02214 7.43605 2.54674 7.21875 3.09375 7.21875H13.4062" stroke="#757474" stroke-width="1.5" stroke-linecap="round" stroke-linejoin="round"/>
</g>
<defs>
<clipPath id="clip0_32_1430">
<rect width="33" height="33" fill="white"/>
</clipPath>
</defs>
</svg>
