<svg width="403" height="61" viewBox="0 0 403 61" fill="none" xmlns="http://www.w3.org/2000/svg">
<g filter="url(#filter0_d_227_60)">
<g clip-path="url(#clip0_227_60)">
<rect width="402" height="53" fill="#FCF9EA"/>
<path d="M347.906 29.125C347.682 29.125 347.468 29.2139 347.31 29.3721C347.151 29.5304 347.062 29.745 347.062 29.9688V35.0312C347.062 35.255 347.151 35.4696 347.31 35.6279C347.468 35.7861 347.682 35.875 347.906 35.875H357.188C357.411 35.875 357.626 35.7861 357.784 35.6279C357.942 35.4696 358.031 35.255 358.031 35.0312V29.9688C358.031 29.745 357.942 29.5304 357.784 29.3721C357.626 29.2139 357.411 29.125 357.188 29.125H347.906ZM343.688 29.5469C343.688 28.5399 344.088 27.5741 344.8 26.8621C345.512 26.15 346.477 25.75 347.484 25.75H361.828C362.835 25.75 363.801 26.15 364.513 26.8621C365.225 27.5741 365.625 28.5399 365.625 29.5469V29.9688H366.047C366.383 29.9688 366.704 30.1021 366.942 30.3394C367.179 30.5768 367.312 30.8987 367.312 31.2344V33.7656C367.312 34.1013 367.179 34.4232 366.942 34.6606C366.704 34.8979 366.383 35.0312 366.047 35.0312H365.625V35.4531C365.625 36.4601 365.225 37.4259 364.513 38.1379C363.801 38.85 362.835 39.25 361.828 39.25H347.484C346.477 39.25 345.512 38.85 344.8 38.1379C344.088 37.4259 343.688 36.4601 343.688 35.4531V29.5469ZM347.484 27.4375C346.925 27.4375 346.388 27.6597 345.993 28.0553C345.597 28.4509 345.375 28.9874 345.375 29.5469V35.4531C345.375 36.0126 345.597 36.5491 345.993 36.9447C346.388 37.3403 346.925 37.5625 347.484 37.5625H361.828C362.388 37.5625 362.924 37.3403 363.32 36.9447C363.715 36.5491 363.938 36.0126 363.938 35.4531V29.5469C363.938 28.9874 363.715 28.4509 363.32 28.0553C362.924 27.6597 362.388 27.4375 361.828 27.4375H347.484Z" fill="#C7C7CC"/>
<path d="M324.762 33.5125L323.188 31.9C323.963 31.125 324.85 30.5313 325.85 30.1188C326.85 29.7063 327.9 29.5 329 29.5C330.1 29.5 331.153 29.7095 332.16 30.1285C333.166 30.5475 334.05 31.1505 334.812 31.9375L333.237 33.5125C332.675 32.95 332.028 32.5158 331.297 32.2098C330.565 31.9038 329.799 31.7505 329 31.75C328.201 31.7495 327.435 31.9028 326.703 32.2098C325.972 32.5168 325.325 32.951 324.762 33.5125ZM321.575 30.325L320 28.75C321.188 27.5375 322.559 26.6093 324.116 25.9653C325.673 25.3213 327.3 24.9995 329 25C330.7 25.0005 332.328 25.3225 333.885 25.966C335.442 26.6095 336.813 27.5375 338 28.75L336.425 30.325C335.438 29.3375 334.303 28.5783 333.021 28.0473C331.74 27.5163 330.399 27.2505 329 27.25C327.601 27.2495 326.26 27.5153 324.978 28.0473C323.696 28.5793 322.562 29.3385 321.575 30.325ZM329 37.75L326.356 35.0875C326.706 34.7375 327.11 34.4688 327.566 34.2813C328.023 34.0938 328.5 34 329 34C329.5 34 329.978 34.0938 330.435 34.2813C330.892 34.4688 331.295 34.7375 331.644 35.0875L329 37.75Z" fill="#C7C7CC"/>
<path d="M312.5 33.625C312.867 33.625 313.227 33.7329 313.533 33.9353C313.84 34.1377 314.08 34.4258 314.224 34.7636C314.369 35.1015 314.411 35.4743 314.345 35.8357C314.279 36.1972 314.109 36.5313 313.854 36.7967C313.6 37.0621 313.274 37.2469 312.916 37.3284C312.557 37.4098 312.183 37.3842 311.839 37.2547C311.496 37.1253 311.197 36.8977 310.982 36.6002C310.766 36.3027 310.643 35.9484 310.627 35.5814L310.625 35.5L310.627 35.4186C310.648 34.9359 310.854 34.4799 311.203 34.1457C311.552 33.8116 312.017 33.625 312.5 33.625Z" fill="#C7C7CC"/>
<path d="M307.5 33.625C307.867 33.625 308.227 33.7329 308.533 33.9353C308.84 34.1377 309.08 34.4258 309.224 34.7636C309.369 35.1015 309.411 35.4743 309.345 35.8357C309.279 36.1972 309.109 36.5313 308.854 36.7967C308.6 37.0621 308.274 37.2469 307.916 37.3284C307.557 37.4098 307.183 37.3842 306.839 37.2547C306.496 37.1253 306.197 36.8977 305.982 36.6002C305.766 36.3027 305.643 35.9484 305.627 35.5814L305.625 35.5L305.627 35.4186C305.648 34.9359 305.854 34.4799 306.203 34.1457C306.552 33.8116 307.017 33.625 307.5 33.625Z" fill="#C7C7CC"/>
<path d="M302.5 33.625C302.867 33.625 303.227 33.7329 303.533 33.9353C303.84 34.1377 304.08 34.4258 304.224 34.7636C304.369 35.1015 304.411 35.4743 304.345 35.8357C304.279 36.1972 304.109 36.5313 303.854 36.7967C303.6 37.0621 303.274 37.2469 302.916 37.3284C302.557 37.4098 302.183 37.3842 301.839 37.2547C301.496 37.1253 301.197 36.8977 300.982 36.6002C300.766 36.3027 300.643 35.9484 300.627 35.5814L300.625 35.5L300.627 35.4186C300.648 34.9359 300.854 34.4799 301.203 34.1457C301.552 33.8116 302.017 33.625 302.5 33.625Z" fill="#C7C7CC"/>
<path d="M297.5 33.625C297.867 33.625 298.227 33.7329 298.533 33.9353C298.84 34.1377 299.08 34.4258 299.224 34.7636C299.369 35.1015 299.411 35.4743 299.345 35.8357C299.279 36.1972 299.109 36.5313 298.854 36.7967C298.6 37.0621 298.274 37.2469 297.916 37.3284C297.557 37.4098 297.183 37.3842 296.839 37.2547C296.496 37.1253 296.197 36.8977 295.982 36.6002C295.766 36.3027 295.643 35.9484 295.627 35.5814L295.625 35.5L295.627 35.4186C295.648 34.9359 295.854 34.4799 296.203 34.1457C296.552 33.8116 297.017 33.625 297.5 33.625Z" fill="#C7C7CC"/>
<path d="M32.576 26.4V24.336H36.432V36H34.128V26.4H32.576ZM40.1489 33.472C41.1729 32.6187 41.9889 31.9093 42.5969 31.344C43.2049 30.768 43.7115 30.1707 44.1169 29.552C44.5222 28.9333 44.7249 28.3253 44.7249 27.728C44.7249 27.184 44.5969 26.7573 44.3409 26.448C44.0849 26.1387 43.6902 25.984 43.1569 25.984C42.6235 25.984 42.2129 26.1653 41.9249 26.528C41.6369 26.88 41.4875 27.3653 41.4769 27.984H39.3009C39.3435 26.704 39.7222 25.7333 40.4369 25.072C41.1622 24.4107 42.0795 24.08 43.1889 24.08C44.4049 24.08 45.3382 24.4053 45.9889 25.056C46.6395 25.696 46.9649 26.544 46.9649 27.6C46.9649 28.432 46.7409 29.2267 46.2929 29.984C45.8449 30.7413 45.3329 31.4027 44.7569 31.968C44.1809 32.5227 43.4289 33.1947 42.5009 33.984H47.2209V35.84H39.3169V34.176L40.1489 33.472ZM50.6804 36.112C50.275 36.112 49.939 35.9893 49.6724 35.744C49.4164 35.488 49.2884 35.1733 49.2884 34.8C49.2884 34.4267 49.4164 34.1173 49.6724 33.872C49.939 33.616 50.275 33.488 50.6804 33.488C51.075 33.488 51.4004 33.616 51.6564 33.872C51.9124 34.1173 52.0404 34.4267 52.0404 34.8C52.0404 35.1733 51.9124 35.488 51.6564 35.744C51.4004 35.9893 51.075 36.112 50.6804 36.112ZM54.4206 27.408C54.474 26.3413 54.8473 25.52 55.5406 24.944C56.2446 24.3573 57.1673 24.064 58.3086 24.064C59.0873 24.064 59.754 24.2027 60.3086 24.48C60.8633 24.7467 61.2793 25.1147 61.5566 25.584C61.8446 26.0427 61.9886 26.5653 61.9886 27.152C61.9886 27.824 61.8126 28.3947 61.4606 28.864C61.1193 29.3227 60.7086 29.632 60.2286 29.792V29.856C60.8473 30.048 61.3273 30.3893 61.6686 30.88C62.0206 31.3707 62.1966 32 62.1966 32.768C62.1966 33.408 62.0473 33.9787 61.7486 34.48C61.4606 34.9813 61.0286 35.376 60.4526 35.664C59.8873 35.9413 59.2046 36.08 58.4046 36.08C57.1993 36.08 56.218 35.776 55.4606 35.168C54.7033 34.56 54.3033 33.664 54.2606 32.48H56.4366C56.458 33.0027 56.634 33.424 56.9646 33.744C57.306 34.0533 57.77 34.208 58.3566 34.208C58.9006 34.208 59.3166 34.0587 59.6046 33.76C59.9033 33.4507 60.0526 33.056 60.0526 32.576C60.0526 31.936 59.85 31.4773 59.4446 31.2C59.0393 30.9227 58.41 30.784 57.5566 30.784H57.0926V28.944H57.5566C59.0713 28.944 59.8286 28.4373 59.8286 27.424C59.8286 26.9653 59.69 26.608 59.4126 26.352C59.146 26.096 58.7566 25.968 58.2446 25.968C57.7433 25.968 57.354 26.1067 57.0766 26.384C56.81 26.6507 56.6553 26.992 56.6126 27.408H54.4206ZM64.7668 30.016C64.7668 28.1707 65.0974 26.7253 65.7588 25.68C66.4308 24.6347 67.5401 24.112 69.0868 24.112C70.6334 24.112 71.7374 24.6347 72.3988 25.68C73.0708 26.7253 73.4068 28.1707 73.4068 30.016C73.4068 31.872 73.0708 33.328 72.3988 34.384C71.7374 35.44 70.6334 35.968 69.0868 35.968C67.5401 35.968 66.4308 35.44 65.7588 34.384C65.0974 33.328 64.7668 31.872 64.7668 30.016ZM71.1988 30.016C71.1988 29.2267 71.1454 28.5653 71.0388 28.032C70.9428 27.488 70.7401 27.0453 70.4308 26.704C70.1321 26.3627 69.6841 26.192 69.0868 26.192C68.4894 26.192 68.0361 26.3627 67.7268 26.704C67.4281 27.0453 67.2254 27.488 67.1188 28.032C67.0228 28.5653 66.9748 29.2267 66.9748 30.016C66.9748 30.8267 67.0228 31.5093 67.1188 32.064C67.2148 32.608 67.4174 33.0507 67.7268 33.392C68.0361 33.7227 68.4894 33.888 69.0868 33.888C69.6841 33.888 70.1374 33.7227 70.4468 33.392C70.7561 33.0507 70.9588 32.608 71.0548 32.064C71.1508 31.5093 71.1988 30.8267 71.1988 30.016Z" fill="#AEAEB2"/>
</g>
</g>
<defs>
<filter id="filter0_d_227_60" x="-4" y="0" width="410" height="61" filterUnits="userSpaceOnUse" color-interpolation-filters="sRGB">
<feFlood flood-opacity="0" result="BackgroundImageFix"/>
<feColorMatrix in="SourceAlpha" type="matrix" values="0 0 0 0 0 0 0 0 0 0 0 0 0 0 0 0 0 0 127 0" result="hardAlpha"/>
<feOffset dy="4"/>
<feGaussianBlur stdDeviation="2"/>
<feComposite in2="hardAlpha" operator="out"/>
<feColorMatrix type="matrix" values="0 0 0 0 0 0 0 0 0 0 0 0 0 0 0 0 0 0 0.25 0"/>
<feBlend mode="normal" in2="BackgroundImageFix" result="effect1_dropShadow_227_60"/>
<feBlend mode="normal" in="SourceGraphic" in2="effect1_dropShadow_227_60" result="shape"/>
</filter>
<clipPath id="clip0_227_60">
<rect width="402" height="53" fill="white"/>
</clipPath>
</defs>
</svg>
