<svg width="19" height="19" viewBox="0 0 19 19" fill="none" xmlns="http://www.w3.org/2000/svg">
<path d="M2.189 10.0328L9.66762 17.5114C9.80146 17.6453 9.87158 17.8029 9.878 17.9844C9.8835 18.1659 9.81017 18.3323 9.658 18.4836C9.50767 18.6302 9.34587 18.7049 9.17262 18.7077C9.00029 18.7095 8.83804 18.6348 8.68587 18.4836L0.325875 10.1236C0.205792 10.0026 0.121458 9.87973 0.072875 9.75506C0.0242916 9.63039 0 9.49381 0 9.34531C0 9.19681 0.0242916 9.06023 0.072875 8.93556C0.121458 8.81089 0.205792 8.68852 0.325875 8.56843L8.68587 0.207059C8.81421 0.0787256 8.9705 0.00997549 9.15475 0.000808822C9.33992 -0.00835784 9.50813 0.0603923 9.65938 0.207059C9.81063 0.358309 9.88625 0.521476 9.88625 0.696559C9.88625 0.872559 9.81063 1.03618 9.65938 1.18743L2.18763 8.65781H18.1101C18.3063 8.65781 18.4699 8.72335 18.601 8.85443C18.7321 8.98552 18.7976 9.14914 18.7976 9.34531C18.7976 9.54148 18.7321 9.7051 18.601 9.83618C18.4699 9.96727 18.3063 10.0328 18.1101 10.0328H2.189Z" fill="black"/>
</svg>
