<svg width="42" height="42" viewBox="0 0 42 42" fill="none" xmlns="http://www.w3.org/2000/svg">
<g filter="url(#filter0_d_136_56)">
<path fill-rule="evenodd" clip-rule="evenodd" d="M14.0949 8.73583V6.875C14.0949 5.05164 14.8193 3.30295 16.1086 2.01364C17.3979 0.724328 19.1466 0 20.9699 0C22.7933 0 24.542 0.724328 25.8313 2.01364C27.1206 3.30295 27.8449 5.05164 27.8449 6.875V8.73583C30.2044 8.80733 31.6491 9.06033 32.7509 9.97517C34.2781 11.2438 34.6814 13.3888 35.4863 17.6807L36.8613 25.014C37.9924 31.0493 38.5571 34.067 36.9089 36.0543C35.2589 38.0417 32.1881 38.0417 26.0483 38.0417H15.8916C9.74995 38.0417 6.68095 38.0417 5.03095 36.0543C3.38095 34.067 3.94928 31.0493 5.07861 25.014L6.45361 17.6807C7.26028 13.3907 7.66178 11.2438 9.18895 9.97517C10.2908 9.06033 11.7354 8.80733 14.0949 8.73583ZM16.8449 6.875C16.8449 5.78098 17.2795 4.73177 18.0531 3.95818C18.8267 3.1846 19.8759 2.75 20.9699 2.75C22.064 2.75 23.1132 3.1846 23.8868 3.95818C24.6603 4.73177 25.0949 5.78098 25.0949 6.875V8.70833H16.8449V6.875Z" fill="#FFA4A4" fill-opacity="0.7" shape-rendering="crispEdges"/>
<path d="M20.9697 0.5C22.6604 0.5 24.282 1.17171 25.4775 2.36719C26.6731 3.56273 27.3447 5.18425 27.3447 6.875V9.2207L27.8301 9.23535C30.1873 9.3068 31.4729 9.56345 32.4316 10.3594C33.0941 10.9097 33.5365 11.664 33.9131 12.8457C34.2938 14.0407 34.5904 15.6143 34.9951 17.7725L36.3701 25.1064C36.9385 28.139 37.3531 30.361 37.4277 32.0742C37.5017 33.7735 37.2352 34.8782 36.5244 35.7354C35.8128 36.5924 34.7758 37.0576 33.0918 37.2979C31.3939 37.5401 29.1332 37.542 26.0479 37.542H15.8916C12.8054 37.542 10.5453 37.54 8.84766 37.2979C7.16402 37.0576 6.12772 36.5923 5.41602 35.7354C4.7045 34.8784 4.43727 33.7737 4.51172 32.0742C4.58679 30.3609 5.00283 28.1392 5.57031 25.1064L6.94531 17.7734C7.35099 15.6159 7.64675 14.0421 8.02734 12.8467C8.40376 11.6644 8.84638 10.9097 9.50879 10.3594C10.4675 9.56363 11.7532 9.30678 14.1104 9.23535L14.5947 9.2207V6.875C14.5947 5.1843 15.2664 3.56272 16.4619 2.36719C17.6574 1.1717 19.2791 0.500059 20.9697 0.5ZM20.9697 2.25C19.7432 2.25006 18.5665 2.73719 17.6992 3.60449C16.8319 4.47184 16.3447 5.64843 16.3447 6.875V9.20801H25.5947V6.875C25.5947 5.64837 25.1076 4.47185 24.2402 3.60449C23.3729 2.73721 22.1963 2.25 20.9697 2.25Z" stroke="black" shape-rendering="crispEdges"/>
</g>
<defs>
<filter id="filter0_d_136_56" x="0" y="0" width="41.9397" height="46.0416" filterUnits="userSpaceOnUse" color-interpolation-filters="sRGB">
<feFlood flood-opacity="0" result="BackgroundImageFix"/>
<feColorMatrix in="SourceAlpha" type="matrix" values="0 0 0 0 0 0 0 0 0 0 0 0 0 0 0 0 0 0 127 0" result="hardAlpha"/>
<feOffset dy="4"/>
<feGaussianBlur stdDeviation="2"/>
<feComposite in2="hardAlpha" operator="out"/>
<feColorMatrix type="matrix" values="0 0 0 0 0 0 0 0 0 0 0 0 0 0 0 0 0 0 0.25 0"/>
<feBlend mode="normal" in2="BackgroundImageFix" result="effect1_dropShadow_136_56"/>
<feBlend mode="normal" in="SourceGraphic" in2="effect1_dropShadow_136_56" result="shape"/>
</filter>
</defs>
</svg>
