<svg width="24" height="14" viewBox="0 0 24 14" fill="none" xmlns="http://www.w3.org/2000/svg">
<path d="M4.21875 3.375C3.99497 3.375 3.78036 3.4639 3.62213 3.62213C3.4639 3.78036 3.375 3.99497 3.375 4.21875V9.28125C3.375 9.50503 3.4639 9.71964 3.62213 9.87787C3.78036 10.0361 3.99497 10.125 4.21875 10.125H13.5C13.7238 10.125 13.9384 10.0361 14.0966 9.87787C14.2549 9.71964 14.3438 9.50503 14.3438 9.28125V4.21875C14.3438 3.99497 14.2549 3.78036 14.0966 3.62213C13.9384 3.4639 13.7238 3.375 13.5 3.375H4.21875ZM0 3.79688C0 2.78988 0.400027 1.82413 1.11208 1.11208C1.82413 0.400027 2.78988 0 3.79688 0H18.1406C19.1476 0 20.1134 0.400027 20.8254 1.11208C21.5375 1.82413 21.9375 2.78988 21.9375 3.79688V4.21875H22.3594C22.695 4.21875 23.017 4.35209 23.2543 4.58944C23.4917 4.82679 23.625 5.14871 23.625 5.48438V8.01562C23.625 8.35129 23.4917 8.67321 23.2543 8.91056C23.017 9.14791 22.695 9.28125 22.3594 9.28125H21.9375V9.70312C21.9375 10.7101 21.5375 11.6759 20.8254 12.3879C20.1134 13.1 19.1476 13.5 18.1406 13.5H3.79688C2.78988 13.5 1.82413 13.1 1.11208 12.3879C0.400027 11.6759 0 10.7101 0 9.70312V3.79688ZM3.79688 1.6875C3.23743 1.6875 2.70091 1.90974 2.30532 2.30532C1.90974 2.70091 1.6875 3.23743 1.6875 3.79688V9.70312C1.6875 10.2626 1.90974 10.7991 2.30532 11.1947C2.70091 11.5903 3.23743 11.8125 3.79688 11.8125H18.1406C18.7001 11.8125 19.2366 11.5903 19.6322 11.1947C20.0278 10.7991 20.25 10.2626 20.25 9.70312V3.79688C20.25 3.23743 20.0278 2.70091 19.6322 2.30532C19.2366 1.90974 18.7001 1.6875 18.1406 1.6875H3.79688Z" fill="#C7C7CC"/>
</svg>
