<svg width="34" height="33" viewBox="0 0 34 33" fill="none" xmlns="http://www.w3.org/2000/svg">
<path d="M3.95291 6.44062C3.10849 9.19446 2.1983 13.0712 1.57609 18.2413L1.57375 18.2608C0.841109 24.3427 0.47439 27.387 2.59473 29.6923C4.71734 32.0001 8.15368 32.0001 15.0299 32.0001H18.9694C25.8456 32.0001 29.282 32.0001 31.4046 29.6906C33.5254 27.3828 33.1592 24.3362 32.425 18.2413C31.801 13.0712 30.8908 9.19446 30.0464 6.44062C29.3548 4.18107 29.0082 3.05129 27.5896 2.02657C26.1709 1.00012 24.7203 1.00012 21.8191 1.00012H12.1802C9.27898 1.00012 7.82836 1.00184 6.40973 2.02657C4.99111 3.05129 4.64445 4.18107 3.95291 6.44062Z" stroke="#9CA3AF" stroke-width="2" stroke-linecap="round" stroke-linejoin="round"/>
<path d="M11.6664 7.88904C11.6664 9.25932 12.2283 10.5735 13.2285 11.5424C14.2287 12.5114 15.5852 13.0557 16.9996 13.0557C18.4141 13.0557 19.7706 12.5114 20.7707 11.5424C21.7709 10.5735 22.3328 9.25932 22.3328 7.88904" stroke="#9CA3AF" stroke-width="2" stroke-linecap="round" stroke-linejoin="round"/>
</svg>
