<svg width="35" height="38" viewBox="0 0 35 38" fill="none" xmlns="http://www.w3.org/2000/svg">
<path d="M24.2917 1V8.16667M9.95833 1V8.16667M33.25 18.9167C33.25 12.1603 33.25 8.78121 31.1502 6.68317C29.0503 4.58512 25.673 4.58333 18.9167 4.58333H15.3333C8.57696 4.58333 5.19787 4.58333 3.09983 6.68317C1.00179 8.783 1 12.1603 1 18.9167V22.5C1 29.2564 1 32.6355 3.09983 34.7335C5.19967 36.8315 8.57696 36.8333 15.3333 36.8333M1 15.3333H33.25" stroke="black" stroke-width="2" stroke-linecap="round" stroke-linejoin="round"/>
<path d="M24.2917 1V8.16667M9.95833 1V8.16667M33.25 18.9167C33.25 12.1603 33.25 8.78121 31.1502 6.68317C29.0503 4.58512 25.673 4.58333 18.9167 4.58333H15.3333C8.57696 4.58333 5.19787 4.58333 3.09983 6.68317C1.00179 8.783 1 12.1603 1 18.9167V22.5C1 29.2564 1 32.6355 3.09983 34.7335C5.19967 36.8315 8.57696 36.8333 15.3333 36.8333M1 15.3333H33.25" stroke="#6FA8A6" stroke-opacity="0.7" stroke-width="2" stroke-linecap="round" stroke-linejoin="round"/>
<path d="M28.3534 30.9226L26.0833 29.6667V26.5617M33.25 29.6667C33.25 31.5674 32.4949 33.3903 31.1509 34.7343C29.8069 36.0783 27.9841 36.8333 26.0833 36.8333C24.1826 36.8333 22.3598 36.0783 21.0157 34.7343C19.6717 33.3903 18.9167 31.5674 18.9167 29.6667C18.9167 27.7659 19.6717 25.9431 21.0157 24.5991C22.3598 23.2551 24.1826 22.5 26.0833 22.5C27.9841 22.5 29.8069 23.2551 31.1509 24.5991C32.4949 25.9431 33.25 27.7659 33.25 29.6667Z" stroke="black" stroke-width="2" stroke-linecap="round" stroke-linejoin="round"/>
<path d="M28.3534 30.9226L26.0833 29.6667V26.5617M33.25 29.6667C33.25 31.5674 32.4949 33.3903 31.1509 34.7343C29.8069 36.0783 27.9841 36.8333 26.0833 36.8333C24.1826 36.8333 22.3598 36.0783 21.0157 34.7343C19.6717 33.3903 18.9167 31.5674 18.9167 29.6667C18.9167 27.7659 19.6717 25.9431 21.0157 24.5991C22.3598 23.2551 24.1826 22.5 26.0833 22.5C27.9841 22.5 29.8069 23.2551 31.1509 24.5991C32.4949 25.9431 33.25 27.7659 33.25 29.6667Z" stroke="#6FA8A6" stroke-opacity="0.7" stroke-width="2" stroke-linecap="round" stroke-linejoin="round"/>
</svg>
