<svg width="46" height="45" viewBox="0 0 46 45" fill="none" xmlns="http://www.w3.org/2000/svg">
<g clip-path="url(#clip0_388_86)">
<path d="M9.57622 28.2412C10.1984 23.0711 11.1086 19.1943 11.953 16.4405C12.6446 14.1809 12.9912 13.0512 14.4099 12.0264C15.8285 11.0017 17.2791 11 20.1804 11H29.8192C32.7204 11 34.1711 11 35.5897 12.0264C37.0083 13.0512 37.355 14.1809 38.0465 16.4405C38.8909 19.1943 39.8011 23.0711 40.4251 28.2412C41.1593 34.3361 41.5255 37.3827 39.4047 39.6905C37.2821 42 33.8457 42 26.9695 42H23.03C16.1538 42 12.7175 42 10.5949 39.6922C8.47225 37.3844 8.84202 34.3361 9.57622 28.2412Z" stroke="#9CA3AF" stroke-width="2.5" stroke-linecap="round" stroke-linejoin="round"/>
<path d="M19.6665 17.8889C19.6665 19.2592 20.2284 20.5734 21.2286 21.5423C22.2287 22.5112 23.5852 23.0556 24.9997 23.0556C26.4141 23.0556 27.7706 22.5112 28.7708 21.5423C29.771 20.5734 30.3329 19.2592 30.3329 17.8889" stroke="#9CA3AF" stroke-width="2.5" stroke-linecap="round" stroke-linejoin="round"/>
</g>
<defs>
<clipPath id="clip0_388_86">
<rect width="46" height="45" fill="white"/>
</clipPath>
</defs>
</svg>
