<svg width="35" height="34" viewBox="0 0 35 34" fill="none" xmlns="http://www.w3.org/2000/svg">
<path d="M11.3552 7.98706C11.3552 9.3271 11.8875 10.6123 12.8351 11.5598C13.7826 12.5074 15.0678 13.0397 16.4078 13.0397C17.7479 13.0397 19.033 12.5074 19.9805 11.5598C20.9281 10.6123 21.4604 9.3271 21.4604 7.98706M24.8288 24.8292L33.2498 33.2502M24.8288 33.2502L33.2498 24.8292" stroke="#9CA3AF" stroke-width="2.5" stroke-linecap="round" stroke-linejoin="round"/>
<path d="M19.9581 31.5661H14.5417C8.02726 31.5661 4.7717 31.5661 2.76077 29.3092C0.749831 27.0524 1.10014 24.0713 1.79572 18.1109C2.38519 13.0549 3.2475 9.26372 4.04749 6.57067C4.70265 4.36098 5.03107 3.25614 6.37506 2.25403C7.71905 1.25193 9.09335 1.25024 11.842 1.25024H20.9737C23.7223 1.25024 25.0966 1.25024 26.4406 2.25403C27.7846 3.25614 28.113 4.36098 28.7682 6.57067C29.5682 9.26372 30.4305 13.0549 31.0216 18.1109L31.2136 19.7766" stroke="#9CA3AF" stroke-width="2.5" stroke-linecap="round" stroke-linejoin="round"/>
</svg>
