<svg width="42" height="38" viewBox="0 0 42 38" fill="none" xmlns="http://www.w3.org/2000/svg">
<g clip-path="url(#clip0_136_43)">
<path d="M15.1054 12.7368C15.1054 14.0769 15.6377 15.362 16.5853 16.3096C17.5328 17.2571 18.818 17.7895 20.158 17.7895C21.498 17.7895 22.7832 17.2571 23.7307 16.3096C24.6783 15.362 25.2106 14.0769 25.2106 12.7368M28.579 29.5789L37 38M28.579 38L37 29.5789" stroke="#9CA3AF" stroke-width="2.5" stroke-linecap="round" stroke-linejoin="round"/>
<path d="M23.7083 36.3158H18.2919C11.7774 36.3158 8.52188 36.3158 6.51095 34.059C4.50001 31.8021 4.85033 28.8211 5.5459 22.8606C6.13537 17.8046 6.99768 14.0135 7.79768 11.3204C8.45283 9.11074 8.78125 8.0059 10.1252 7.00379C11.4692 6.00168 12.8435 6 15.5921 6H24.7239C27.4725 6 28.8468 6 30.1908 7.00379C31.5348 8.0059 31.8632 9.11074 32.5184 11.3204C33.3183 14.0135 34.1807 17.8046 34.7718 22.8606L34.9638 24.5263" stroke="#9CA3AF" stroke-width="2.5" stroke-linecap="round" stroke-linejoin="round"/>
</g>
<defs>
<clipPath id="clip0_136_43">
<rect width="42" height="38" fill="white"/>
</clipPath>
</defs>
</svg>
