<svg width="36" height="40" viewBox="0 0 36 40" fill="none" xmlns="http://www.w3.org/2000/svg">
<path d="M21.8443 37.4675C20.2374 35.7763 19.434 33.7195 19.434 31.2973C19.434 28.875 20.2374 26.819 21.8443 25.1292C23.4513 23.4394 25.4081 22.5945 27.7149 22.5945C30.0231 22.5945 31.9807 23.4394 33.5876 25.1292C35.1959 26.8175 36 28.8735 36 31.2973C36 33.721 35.1959 35.7777 33.5876 37.4675C31.9793 39.1573 30.0224 40.0014 27.717 40C25.4116 39.9985 23.454 39.1544 21.8443 37.4675ZM31.1462 36.0881L32.2768 34.9002L28.5122 30.9448V25.0226H26.9198V31.6497L31.1462 36.0881ZM3.34633 37.8243C2.41864 37.8243 1.62899 37.482 0.977395 36.7974C0.325798 36.1128 0 35.2838 0 34.3106V6.52706C0 5.55525 0.325798 4.72632 0.977395 4.04025C1.62899 3.35563 2.41864 3.01333 3.34633 3.01333H12.9463C13.1396 2.16336 13.5696 1.44901 14.2364 0.870275C14.9032 0.290092 15.6797 0 16.566 0C17.4689 0 18.2516 0.290092 18.9142 0.870275C19.5769 1.44756 20.0048 2.16191 20.1981 3.01333H29.7857C30.7134 3.01333 31.503 3.35563 32.1546 4.04025C32.8062 4.72487 33.132 5.55453 33.132 6.52924V19.6247C32.7758 19.4318 32.439 19.2628 32.1215 19.1178C31.804 18.9727 31.4506 18.8429 31.0613 18.7283V6.52706C31.0613 6.19345 30.9287 5.88668 30.6637 5.60674C30.3986 5.32681 30.106 5.18756 29.7857 5.18901H24.849V10.0408H8.283V5.18901H3.34633C3.02744 5.18901 2.73477 5.32826 2.46833 5.60674C2.2019 5.88523 2.06937 6.19273 2.07075 6.52924V34.3106C2.07075 34.7008 2.19016 35.0213 2.42899 35.2722C2.66782 35.5232 2.9736 35.6486 3.34633 35.6486H16.0318C16.1422 36.0548 16.2726 36.4326 16.4231 36.7822C16.575 37.1303 16.7682 37.4777 17.0029 37.8243H3.34633ZM17.7629 5.19119C18.0804 4.85758 18.2392 4.4384 18.2392 3.93364C18.2392 3.42888 18.0804 3.0097 17.7629 2.67609C17.4454 2.34249 17.0464 2.17569 16.566 2.17569C16.0856 2.17569 15.6866 2.34249 15.3691 2.67609C15.0516 3.0097 14.8928 3.42888 14.8928 3.93364C14.8928 4.4384 15.0516 4.85758 15.3691 5.19119C15.6866 5.52479 16.0856 5.6916 16.566 5.6916C17.0464 5.6916 17.4454 5.52479 17.7629 5.19119Z" fill="#9CA3AF"/>
</svg>
