<svg width="39" height="52" viewBox="0 0 39 52" fill="none" xmlns="http://www.w3.org/2000/svg">
<path fill-rule="evenodd" clip-rule="evenodd" d="M19.375 0C14.2364 0 9.30832 1.90959 5.67481 5.30869C2.04129 8.70779 0 13.318 0 18.125C0 22.2575 2.17 27.144 5.33587 32.3858C8.5405 37.6891 12.958 43.6486 17.7979 49.9924L19.375 52.0586L20.9521 49.9924C25.7959 43.6486 30.2095 37.6891 33.4141 32.3858C36.58 27.144 38.75 22.2575 38.75 18.125C38.75 15.7448 38.2489 13.3879 37.2752 11.1889C36.3015 8.98984 34.8743 6.99175 33.0752 5.30869C31.2761 3.62563 29.1402 2.29055 26.7895 1.37968C24.4388 0.468817 21.9194 0 19.375 0ZM19.375 9.0625C16.8057 9.0625 14.3417 10.0173 12.5249 11.7168C10.7081 13.4164 9.6875 15.7215 9.6875 18.125C9.6875 20.5285 10.7081 22.8336 12.5249 24.5332C14.3417 26.2327 16.8057 27.1875 19.375 27.1875C21.9443 27.1875 24.4083 26.2327 26.2251 24.5332C28.0419 22.8336 29.0625 20.5285 29.0625 18.125C29.0625 15.7215 28.0419 13.4164 26.2251 11.7168C24.4083 10.0173 21.9443 9.0625 19.375 9.0625Z" fill="white"/>
<path fill-rule="evenodd" clip-rule="evenodd" d="M19.375 0C14.2364 0 9.30832 1.90959 5.67481 5.30869C2.04129 8.70779 0 13.318 0 18.125C0 22.2575 2.17 27.144 5.33587 32.3858C8.5405 37.6891 12.958 43.6486 17.7979 49.9924L19.375 52.0586L20.9521 49.9924C25.7959 43.6486 30.2095 37.6891 33.4141 32.3858C36.58 27.144 38.75 22.2575 38.75 18.125C38.75 15.7448 38.2489 13.3879 37.2752 11.1889C36.3015 8.98984 34.8743 6.99175 33.0752 5.30869C31.2761 3.62563 29.1402 2.29055 26.7895 1.37968C24.4388 0.468817 21.9194 0 19.375 0ZM19.375 9.0625C16.8057 9.0625 14.3417 10.0173 12.5249 11.7168C10.7081 13.4164 9.6875 15.7215 9.6875 18.125C9.6875 20.5285 10.7081 22.8336 12.5249 24.5332C14.3417 26.2327 16.8057 27.1875 19.375 27.1875C21.9443 27.1875 24.4083 26.2327 26.2251 24.5332C28.0419 22.8336 29.0625 20.5285 29.0625 18.125C29.0625 15.7215 28.0419 13.4164 26.2251 11.7168C24.4083 10.0173 21.9443 9.0625 19.375 9.0625Z" fill="#6FA8A6" fill-opacity="0.85"/>
</svg>
