<svg width="38" height="38" viewBox="0 0 38 38" fill="none" xmlns="http://www.w3.org/2000/svg">
<path fill-rule="evenodd" clip-rule="evenodd" d="M10.4167 8.33333C10.4167 6.1232 11.2946 4.00358 12.8574 2.44078C14.4202 0.877973 16.5399 0 18.75 0C20.9601 0 23.0798 0.877973 24.6426 2.44078C26.2054 4.00358 27.0833 6.1232 27.0833 8.33333C27.0833 10.5435 26.2054 12.6631 24.6426 14.2259C23.0798 15.7887 20.9601 16.6667 18.75 16.6667C16.5399 16.6667 14.4202 15.7887 12.8574 14.2259C11.2946 12.6631 10.4167 10.5435 10.4167 8.33333ZM10.4167 20.8333C7.65399 20.8333 5.00447 21.9308 3.05097 23.8843C1.09747 25.8378 0 28.4873 0 31.25C0 32.9076 0.65848 34.4973 1.83058 35.6694C3.00269 36.8415 4.5924 37.5 6.25 37.5H31.25C32.9076 37.5 34.4973 36.8415 35.6694 35.6694C36.8415 34.4973 37.5 32.9076 37.5 31.25C37.5 28.4873 36.4025 25.8378 34.449 23.8843C32.4955 21.9308 29.846 20.8333 27.0833 20.8333H10.4167Z" fill="#FFA4A4" fill-opacity="0.7"/>
</svg>
