<svg width="36" height="35" viewBox="0 0 36 35" fill="none" xmlns="http://www.w3.org/2000/svg">
<path d="M18 0C8.0749 0 0 7.85144 0 17.5C0 27.1637 8.06019 35 18 35C27.9251 35 36 27.1494 36 17.5C36 7.83546 27.9407 0 18 0ZM18 26.3341C15.8426 26.3341 13.7735 25.5009 12.248 24.0177C10.7224 22.5346 9.86539 20.523 9.86539 18.4255C9.86539 16.328 10.7224 14.3164 12.248 12.8332C13.7735 11.3501 15.8426 10.5168 18 10.5168H18.3643L17.1433 9.33053C16.9161 9.10962 16.7884 8.81001 16.7884 8.4976C16.7884 8.18519 16.9161 7.88557 17.1433 7.66466C17.3705 7.44376 17.6787 7.31965 18 7.31965C18.3213 7.31965 18.6295 7.44376 18.8567 7.66466L22.3183 11.03C22.4308 11.1394 22.52 11.2693 22.5809 11.4122C22.6418 11.5551 22.6732 11.7083 22.6732 11.863C22.6732 12.0177 22.6418 12.1708 22.5809 12.3138C22.52 12.4567 22.4308 12.5865 22.3183 12.6959L18.8567 16.0613C18.6295 16.2822 18.3213 16.4063 18 16.4063C17.6787 16.4063 17.3705 16.2822 17.1433 16.0613C16.9161 15.8404 16.7884 15.5408 16.7884 15.2284C16.7884 14.916 16.9161 14.6163 17.1433 14.3954L18.701 12.881C18.495 12.8726 18.2596 12.8726 18 12.8726C16.8704 12.8726 15.7661 13.1983 14.8268 13.8084C13.8876 14.4186 13.1555 15.2858 12.7232 16.3005C12.2909 17.3151 12.1778 18.4316 12.3982 19.5088C12.6186 20.5859 13.1626 21.5754 13.9613 22.352C14.7601 23.1285 15.7778 23.6574 16.8857 23.8717C17.9937 24.0859 19.1421 23.976 20.1857 23.5557C21.2294 23.1354 22.1214 22.4237 22.749 21.5105C23.3766 20.5973 23.7115 19.5237 23.7115 18.4255C23.7115 18.1131 23.8392 17.8135 24.0664 17.5926C24.2936 17.3717 24.6018 17.2476 24.9231 17.2476C25.2444 17.2476 25.5526 17.3717 25.7798 17.5926C26.007 17.8135 26.1346 18.1131 26.1346 18.4255C26.1321 20.5222 25.2743 22.5324 23.7493 24.015C22.2243 25.4977 20.1567 26.3317 18 26.3341Z" fill="#6FA8A6"/>
</svg>
