<svg width="22" height="27" viewBox="0 0 22 27" fill="none" xmlns="http://www.w3.org/2000/svg">
<path d="M3.21667 9.38916H18.0167C18.6709 9.38916 19.2983 9.64904 19.7609 10.1116C20.2235 10.5742 20.4833 11.2016 20.4833 11.8558V20.4852C20.4826 21.7931 19.9626 23.0472 19.0375 23.9718C18.1123 24.8964 16.8579 25.4158 15.55 25.4158H5.68333C4.37539 25.4158 3.12099 24.8964 2.19588 23.9718C1.27078 23.0472 0.750707 21.7931 0.75 20.4852V11.8558C0.75 11.2016 1.00988 10.5742 1.47247 10.1116C1.93506 9.64904 2.56247 9.38916 3.21667 9.38916Z" stroke="#FCF9EA" stroke-width="1.5" stroke-linecap="round" stroke-linejoin="round"/>
<path d="M16.7833 12.4865V6.92379C16.7859 5.70326 16.4258 4.50949 15.7488 3.49394C15.0717 2.4784 14.1083 1.68687 12.9807 1.21979C12.043 0.83131 11.0239 0.680174 10.0139 0.779783C9.0038 0.879393 8.03391 1.22667 7.19017 1.79083C6.34644 2.35499 5.65493 3.1186 5.17694 4.01398C4.69896 4.90935 4.44927 5.90882 4.45 6.92379V12.4865" stroke="#FCF9EA" stroke-width="1.5" stroke-linecap="round" stroke-linejoin="round"/>
</svg>
