<svg width="25" height="26" viewBox="0 0 25 26" fill="none" xmlns="http://www.w3.org/2000/svg">
<path d="M20.464 11.498V21.7842C20.4666 22.1759 20.3944 22.5643 20.2514 22.9265C20.1084 23.2888 19.8976 23.6176 19.6313 23.8938C19.365 24.17 19.0486 24.388 18.7005 24.5349C18.3525 24.6819 17.9798 24.7549 17.6044 24.7497H3.60859C3.23178 24.7548 2.85781 24.6811 2.50875 24.5329C2.15969 24.3847 1.8426 24.1651 1.57619 23.887C1.30978 23.6089 1.09945 23.278 0.957594 22.9137C0.815739 22.5494 0.745238 22.1592 0.75025 21.766V7.16247C0.745747 6.76934 0.816637 6.37923 0.95875 6.0151C1.10086 5.65098 1.31133 5.32018 1.57777 5.04217C1.84421 4.76416 2.16124 4.54456 2.51021 4.39627C2.85919 4.24799 3.23306 4.17402 3.60983 4.17872H13.4667M23.75 0.75L10.6071 14.4636M23.75 7.60744V0.75H17.1779" stroke="black" stroke-width="1.5" stroke-linecap="round" stroke-linejoin="round"/>
</svg>
