<svg width="19" height="9" viewBox="0 0 19 9" fill="none" xmlns="http://www.w3.org/2000/svg">
<path d="M16.875 3.625C17.2424 3.62498 17.6017 3.73288 17.9082 3.93531C18.2148 4.13774 18.4552 4.42577 18.5995 4.76364C18.7437 5.1015 18.7856 5.4743 18.7198 5.83574C18.654 6.19718 18.4835 6.53134 18.2294 6.7967C17.9754 7.06206 17.6489 7.24693 17.2907 7.32836C16.9325 7.40979 16.5582 7.38418 16.2144 7.25472C15.8706 7.12526 15.5724 6.89765 15.3568 6.60016C15.1412 6.30267 15.0178 5.94841 15.0019 5.58138L15 5.5L15.0019 5.41862C15.0228 4.93591 15.2294 4.47992 15.5783 4.14575C15.9273 3.81158 16.3918 3.62503 16.875 3.625Z" fill="#C7C7CC"/>
<path d="M11.875 3.625C12.2424 3.62498 12.6017 3.73288 12.9082 3.93531C13.2148 4.13774 13.4552 4.42577 13.5995 4.76364C13.7437 5.1015 13.7856 5.4743 13.7198 5.83574C13.654 6.19718 13.4835 6.53134 13.2294 6.7967C12.9754 7.06206 12.6489 7.24693 12.2907 7.32836C11.9325 7.40979 11.5582 7.38418 11.2144 7.25472C10.8706 7.12526 10.5724 6.89765 10.3568 6.60016C10.1412 6.30267 10.0178 5.94841 10.0019 5.58138L10 5.5L10.0019 5.41862C10.0228 4.93591 10.2294 4.47992 10.5783 4.14575C10.9273 3.81158 11.3918 3.62503 11.875 3.625Z" fill="#C7C7CC"/>
<path d="M6.875 3.625C7.24238 3.62498 7.60167 3.73288 7.90825 3.93531C8.21483 4.13774 8.45518 4.42577 8.59946 4.76364C8.74374 5.1015 8.78559 5.4743 8.7198 5.83574C8.65402 6.19718 8.4835 6.53134 8.22944 6.7967C7.97537 7.06206 7.64894 7.24693 7.2907 7.32836C6.93246 7.40979 6.55819 7.38418 6.21438 7.25472C5.87056 7.12526 5.57236 6.89765 5.3568 6.60016C5.14124 6.30267 5.01782 5.94841 5.00188 5.58138L5 5.5L5.00188 5.41862C5.02284 4.93591 5.22935 4.47992 5.57833 4.14575C5.92731 3.81158 6.39183 3.62503 6.875 3.625Z" fill="#C7C7CC"/>
<path d="M1.875 3.625C2.24238 3.62498 2.60167 3.73288 2.90825 3.93531C3.21483 4.13774 3.45518 4.42577 3.59946 4.76364C3.74374 5.1015 3.78559 5.4743 3.7198 5.83574C3.65402 6.19718 3.4835 6.53134 3.22944 6.7967C2.97537 7.06206 2.64894 7.24693 2.2907 7.32836C1.93246 7.40979 1.55819 7.38418 1.21438 7.25472C0.870563 7.12526 0.572357 6.89765 0.356797 6.60016C0.141236 6.30267 0.0178193 5.94841 0.00187504 5.58138L0 5.5L0.00187504 5.41862C0.0228448 4.93591 0.229353 4.47992 0.578334 4.14575C0.927315 3.81158 1.39183 3.62503 1.875 3.625Z" fill="#C7C7CC"/>
</svg>
