<svg width="36" height="38" viewBox="0 0 36 38" fill="none" xmlns="http://www.w3.org/2000/svg">
<path d="M8.69144 37.1141C8.09986 36.5235 7.80406 35.7982 7.80406 34.9381C7.80406 34.0781 8.09986 33.352 8.69144 32.7601C9.2844 32.1708 10.0133 31.8762 10.8781 31.8762C11.743 31.8762 12.4712 32.1708 13.0628 32.7601C13.6544 33.3493 13.9508 34.0753 13.9522 34.9381C13.9536 35.8009 13.6571 36.5262 13.0628 37.1141C12.4685 37.702 11.7402 37.9973 10.8781 38C10.016 38.0027 9.28713 37.7074 8.69144 37.1141ZM27.9249 37.1141C27.332 36.5235 27.0355 35.7982 27.0355 34.9381C27.0355 34.0781 27.332 33.352 27.9249 32.7601C28.5179 32.1708 29.2461 31.8762 30.1096 31.8762C30.973 31.8762 31.7019 32.1708 32.2963 32.7601C32.8879 33.3507 33.1837 34.0767 33.1837 34.9381C33.1837 35.7982 32.8879 36.5235 32.2963 37.1141C31.7033 37.7047 30.9744 38 30.1096 38C29.2447 38 28.5165 37.7047 27.9249 37.1141ZM7.95367 6.12376L13.4235 17.5874H27.0211C27.2575 17.5874 27.4672 17.5282 27.6503 17.4099C27.8348 17.2915 27.9926 17.1282 28.1237 16.92L33.4849 7.224C33.642 6.9355 33.655 6.68034 33.5238 6.45853C33.3913 6.23535 33.1679 6.12376 32.8537 6.12376H7.95367ZM6.95152 4.08251H33.6345C34.524 4.08251 35.1934 4.44449 35.6429 5.16846C36.0938 5.89106 36.1177 6.63612 35.7146 7.40363L29.8575 18.0345C29.561 18.5312 29.1757 18.9211 28.7016 19.2041C28.2276 19.4872 27.7063 19.6287 27.138 19.6287H12.5013L10.0112 24.1807C9.80084 24.495 9.79401 24.8353 9.99075 25.2013C10.1875 25.5674 10.4833 25.7511 10.8781 25.7525H33.1837V27.7937H10.8781C9.68266 27.7937 8.7905 27.2916 8.20164 26.2873C7.61278 25.283 7.59844 24.2746 8.1586 23.2621L11.2409 17.7916L3.70529 2.04125H0V0H5.0046L6.95152 4.08251Z" fill="#9CA3AF"/>
</svg>
