<svg width="18" height="20" viewBox="0 0 18 20" fill="none" xmlns="http://www.w3.org/2000/svg">
<path d="M14.284 5.70533C13.5489 4.96785 12.6753 4.38296 11.7134 3.98429C10.7515 3.58562 9.72025 3.38105 8.679 3.38233C6.57618 3.3826 4.55956 4.21806 3.07264 5.70497C1.58572 7.19189 0.750265 9.20851 0.75 11.3113C0.750263 13.4151 1.5854 15.4327 3.07203 16.9212C4.55867 18.4097 6.57526 19.2474 8.679 19.2503C10.7829 19.2474 12.7997 18.4096 14.2863 16.9209C15.773 15.4321 16.608 13.4142 16.608 11.3103" stroke="#FCF9EA" stroke-width="1.5" stroke-miterlimit="10" stroke-linecap="round"/>
<path d="M13.559 0.750244L14.509 4.60824C14.5933 4.95022 14.5385 5.31167 14.3567 5.61332C14.1748 5.91496 13.8808 6.13215 13.539 6.21724L9.66998 7.16524" stroke="#FCF9EA" stroke-width="1.5" stroke-linecap="round" stroke-linejoin="round"/>
</svg>
