<svg width="29" height="23" viewBox="0 0 29 23" fill="none" xmlns="http://www.w3.org/2000/svg">
<path fill-rule="evenodd" clip-rule="evenodd" d="M19.5041 6.08246C19.0482 5.76464 18.6789 5.31011 18.4371 4.76921C18.1952 4.2283 18.0903 3.62213 18.1338 3.01783L15.2245 2.4389L15.4754 0.821178L18.6203 1.44692C18.8859 1.0013 19.2439 0.636344 19.6631 0.384067C20.0823 0.13179 20.5497 -9.11574e-05 21.0243 4.72734e-08H23.4784C23.7249 4.72734e-08 23.9242 0.225824 23.9242 0.505024V6.0644C23.9242 6.3436 23.7241 6.56942 23.4784 6.56942H23.1993V13.3441C23.3563 13.2932 23.5161 13.2513 23.6785 13.2185C24.7637 13.0018 25.8817 13.2228 26.838 13.843C27.7942 14.4632 28.5284 15.4435 28.9128 16.6132C29.1397 17.303 28.8983 17.9329 28.4822 18.3082C28.518 19.3984 28.2043 20.4664 27.599 21.315C26.9937 22.1637 26.1377 22.7355 25.1892 22.9249C24.2406 23.1143 23.2636 22.9084 22.4386 22.3454C21.6137 21.7824 20.9964 20.9002 20.701 19.8618C20.3088 19.7124 19.968 19.3773 19.839 18.8871H11.5844C11.4954 20.0106 11.0385 21.0557 10.3036 21.8168C9.56862 22.5779 8.60882 23 7.61298 23C6.61714 23 5.65735 22.5779 4.9224 21.8168C4.18745 21.0557 3.73054 20.0106 3.64156 18.8871H0.340739C0.297226 18.8885 0.253892 18.8802 0.213213 18.8626C0.172535 18.8451 0.13531 18.8186 0.103666 18.7848C0.0720217 18.7509 0.0465788 18.7103 0.0287913 18.6653C0.0110037 18.6203 0.0012202 18.5718 0 18.5225C0 15.6188 1.46953 13.0838 3.65388 11.7264C3.63465 11.6517 3.62488 11.5743 3.62488 11.4965V9.03295C3.62488 8.37958 3.85403 7.75298 4.26191 7.29097C4.66978 6.82897 5.22299 6.56942 5.79981 6.56942H12.3246C12.9014 6.56942 13.4546 6.82897 13.8625 7.29097C14.2704 7.75298 14.4995 8.37958 14.4995 9.03295V11.4965C14.4995 11.7143 14.4232 11.9231 14.2872 12.0771C14.1512 12.2311 13.9668 12.3177 13.7746 12.3177V13.1388H18.2984L19.5041 6.08246ZM19.5744 3.28471C19.5744 2.84913 19.7271 2.43139 19.9991 2.12339C20.271 1.81539 20.6398 1.64236 21.0243 1.64236H22.4743V4.92707H21.0243C20.6398 4.92707 20.271 4.75403 19.9991 4.44603C19.7271 4.13803 19.5744 3.72029 19.5744 3.28471ZM18.0171 14.7812H13.7746V17.2447H17.5966L18.0171 14.7812ZM19.0734 17.2447H19.9115C20.1735 15.9924 20.8262 14.8894 21.7493 14.139V6.56942H20.8975L19.0734 17.2447ZM22.2271 19.7625C22.4717 20.3163 22.8677 20.7659 23.3561 21.0443C23.8445 21.3227 24.3992 21.415 24.9376 21.3075C25.4761 21.2 25.9695 20.8984 26.3444 20.4477C26.7194 19.9969 26.9558 19.421 27.0184 18.8058L22.2271 19.7625ZM5.07484 9.03295C5.07484 8.81516 5.15122 8.60629 5.28718 8.45229C5.42314 8.29829 5.60754 8.21178 5.79981 8.21178H12.3246C12.5169 8.21178 12.7013 8.29829 12.8372 8.45229C12.9732 8.60629 13.0496 8.81516 13.0496 9.03295V10.6753H5.07484V9.03295ZM1.5761 17.2447C2.12708 14.4815 4.43178 12.3177 7.31212 12.3177H12.3246V17.2185C12.3006 17.236 12.2727 17.2451 12.2441 17.2447H1.5761ZM9.87346 18.906C9.96481 18.9093 10.047 18.9128 10.12 18.9166C10.0275 19.5949 9.72384 20.2132 9.2639 20.6599C8.80397 21.1066 8.21811 21.3521 7.61226 21.3521C7.0064 21.3521 6.42054 21.1066 5.96061 20.6599C5.50067 20.2132 5.19702 19.5949 5.10456 18.9166C5.17754 18.9123 5.25971 18.9087 5.35105 18.906C5.88464 18.8871 6.60454 18.8871 7.61226 18.8871C8.61997 18.8871 9.33915 18.8871 9.87346 18.906ZM26.3689 15.4488C25.8912 15.0699 25.3326 14.8429 24.7513 14.7915C24.1699 14.7401 23.587 14.8661 23.0632 15.1565C22.5395 15.4468 22.094 15.8909 21.7731 16.4424C21.4523 16.994 21.2678 17.6328 21.2389 18.2926L27.5042 17.0411C27.2658 16.3995 26.8722 15.8481 26.3689 15.4488Z" fill="black"/>
</svg>
