<svg width="40" height="30" viewBox="0 0 40 30" fill="none" xmlns="http://www.w3.org/2000/svg">
<path d="M12.4857 21.8929L26.7714 7.96429M1 26.0714C0.999998 26.8093 1.30023 27.517 1.83482 28.0393C2.3694 28.5615 3.09466 28.8557 3.85143 28.8571H35.2914C36.0482 28.8557 36.7735 28.5615 37.308 28.0393C37.8426 27.517 38.1429 26.8093 38.1429 26.0714V20.4053C36.9092 20.0791 35.82 19.3661 35.0434 18.3762C34.2668 17.3864 33.846 16.1748 33.846 14.9286C33.846 13.6823 34.2668 12.4708 35.0434 11.4809C35.82 10.4911 36.9092 9.77802 38.1429 9.45186V3.78571C38.1429 3.04786 37.8426 2.34015 37.308 1.81788C36.7735 1.29562 36.0482 1.00148 35.2914 1H3.85143C3.09466 1.00148 2.3694 1.29562 1.83482 1.81788C1.30023 2.34015 0.999998 3.04786 1 3.78571V9.44072C2.24348 9.75959 3.34366 10.471 4.12874 11.4638C4.91382 12.4566 5.3396 13.6749 5.3396 14.9286C5.3396 16.1822 4.91382 17.4005 4.12874 18.3934C3.34366 19.3862 2.24348 20.0976 1 20.4164V26.0714Z" stroke="black" stroke-width="2" stroke-linecap="round" stroke-linejoin="round"/>
<path d="M12.4857 21.8929L26.7714 7.96429M1 26.0714C0.999998 26.8093 1.30023 27.517 1.83482 28.0393C2.3694 28.5615 3.09466 28.8557 3.85143 28.8571H35.2914C36.0482 28.8557 36.7735 28.5615 37.308 28.0393C37.8426 27.517 38.1429 26.8093 38.1429 26.0714V20.4053C36.9092 20.0791 35.82 19.3661 35.0434 18.3762C34.2668 17.3864 33.846 16.1748 33.846 14.9286C33.846 13.6823 34.2668 12.4708 35.0434 11.4809C35.82 10.4911 36.9092 9.77802 38.1429 9.45186V3.78571C38.1429 3.04786 37.8426 2.34015 37.308 1.81788C36.7735 1.29562 36.0482 1.00148 35.2914 1H3.85143C3.09466 1.00148 2.3694 1.29562 1.83482 1.81788C1.30023 2.34015 0.999998 3.04786 1 3.78571V9.44072C2.24348 9.75959 3.34366 10.471 4.12874 11.4638C4.91382 12.4566 5.3396 13.6749 5.3396 14.9286C5.3396 16.1822 4.91382 17.4005 4.12874 18.3934C3.34366 19.3862 2.24348 20.0976 1 20.4164V26.0714Z" stroke="#6FA8A6" stroke-opacity="0.7" stroke-width="2" stroke-linecap="round" stroke-linejoin="round"/>
<path d="M13.9143 10.7499C14.2932 10.7499 14.6565 10.6032 14.9244 10.342C15.1924 10.0808 15.3429 9.7265 15.3429 9.35709C15.3429 8.98768 15.1924 8.6334 14.9244 8.37219C14.6565 8.11098 14.2932 7.96423 13.9143 7.96423C13.5354 7.96423 13.172 8.11098 12.9041 8.37219C12.6362 8.6334 12.4857 8.98768 12.4857 9.35709C12.4857 9.7265 12.6362 10.0808 12.9041 10.342C13.172 10.6032 13.5354 10.7499 13.9143 10.7499ZM25.3429 21.8928C25.7217 21.8928 26.0851 21.7461 26.353 21.4848C26.6209 21.2236 26.7714 20.8694 26.7714 20.4999C26.7714 20.1305 26.6209 19.7763 26.353 19.515C26.0851 19.2538 25.7217 19.1071 25.3429 19.1071C24.964 19.1071 24.6006 19.2538 24.3327 19.515C24.0648 19.7763 23.9143 20.1305 23.9143 20.4999C23.9143 20.8694 24.0648 21.2236 24.3327 21.4848C24.6006 21.7461 24.964 21.8928 25.3429 21.8928Z" stroke="black" stroke-width="2" stroke-linecap="round" stroke-linejoin="round"/>
<path d="M13.9143 10.7499C14.2932 10.7499 14.6565 10.6032 14.9244 10.342C15.1924 10.0808 15.3429 9.7265 15.3429 9.35709C15.3429 8.98768 15.1924 8.6334 14.9244 8.37219C14.6565 8.11098 14.2932 7.96423 13.9143 7.96423C13.5354 7.96423 13.172 8.11098 12.9041 8.37219C12.6362 8.6334 12.4857 8.98768 12.4857 9.35709C12.4857 9.7265 12.6362 10.0808 12.9041 10.342C13.172 10.6032 13.5354 10.7499 13.9143 10.7499ZM25.3429 21.8928C25.7217 21.8928 26.0851 21.7461 26.353 21.4848C26.6209 21.2236 26.7714 20.8694 26.7714 20.4999C26.7714 20.1305 26.6209 19.7763 26.353 19.515C26.0851 19.2538 25.7217 19.1071 25.3429 19.1071C24.964 19.1071 24.6006 19.2538 24.3327 19.515C24.0648 19.7763 23.9143 20.1305 23.9143 20.4999C23.9143 20.8694 24.0648 21.2236 24.3327 21.4848C24.6006 21.7461 24.964 21.8928 25.3429 21.8928Z" stroke="#6FA8A6" stroke-opacity="0.7" stroke-width="2" stroke-linecap="round" stroke-linejoin="round"/>
</svg>
