<svg width="18" height="13" viewBox="0 0 18 13" fill="none" xmlns="http://www.w3.org/2000/svg">
<path d="M4.7625 8.5125L3.1875 6.9C3.9625 6.125 4.85 5.53125 5.85 5.11875C6.85 4.70625 7.9 4.5 9 4.5C10.1 4.5 11.1532 4.7095 12.1597 5.1285C13.1662 5.5475 14.0505 6.1505 14.8125 6.9375L13.2375 8.5125C12.675 7.95 12.028 7.51575 11.2965 7.20975C10.565 6.90375 9.7995 6.7505 9 6.75C8.2005 6.7495 7.435 6.90275 6.7035 7.20975C5.972 7.51675 5.325 7.951 4.7625 8.5125ZM1.575 5.325L0 3.75C1.1875 2.5375 2.5595 1.60925 4.116 0.965251C5.6725 0.321251 7.3005 -0.000499418 9 5.81846e-07C10.6995 0.000500582 12.3278 0.322501 13.8848 0.966001C15.4418 1.6095 16.8135 2.5375 18 3.75L16.425 5.325C15.4375 4.3375 14.303 3.57825 13.0215 3.04725C11.74 2.51625 10.3995 2.2505 9 2.25C7.6005 2.2495 6.25975 2.51525 4.97775 3.04725C3.69575 3.57925 2.5615 4.3385 1.575 5.325ZM9 12.75L6.35625 10.0875C6.70625 9.7375 7.1095 9.46875 7.566 9.28125C8.0225 9.09375 8.5005 9 9 9C9.4995 9 9.97775 9.09375 10.4347 9.28125C10.8918 9.46875 11.2947 9.7375 11.6437 10.0875L9 12.75Z" fill="#C7C7CC"/>
</svg>
